STARTFONT 2.1
COMMENT
COMMENT Converted from OpenType font "Q:\font stuff\winfont\Schwaben Alt Bold.ttf" by "otf2bdf 3.0".
COMMENT
FONT -FreeType-Schwaben Alt-Bold-R-Normal--72-720-72-72-P-329-ISO10646-1
SIZE 72 72 72
FONTBOUNDINGBOX 71 80 -4 -14
STARTPROPERTIES 19
FOUNDRY "FreeType"
FAMILY_NAME "Schwaben Alt"
WEIGHT_NAME "Bold"
SLANT "R"
SETWIDTH_NAME "Normal"
ADD_STYLE_NAME ""
PIXEL_SIZE 72
POINT_SIZE 720
RESOLUTION_X 72
RESOLUTION_Y 72
SPACING "P"
AVERAGE_WIDTH 329
CHARSET_REGISTRY "ISO10646"
CHARSET_ENCODING "1"
FONT_ASCENT 66
FONT_DESCENT 15
COPYRIGHT "-FreeType-Schwaben Alt-Bold-R-Normal--72-720-72-72-P-329-ISO10646-1"
_OTF_FONTFILE "Q:\font stuff\winfont\Schwaben Alt Bold.ttf"
_OTF_PSNAME "SchwabenAlt-Bold"
ENDPROPERTIES
CHARS 86
STARTCHAR 0020
ENCODING 32
SWIDTH 305 0
DWIDTH 22 0
BBX 0 0 0 0
BITMAP
ENDCHAR
STARTCHAR 0021
ENCODING 33
SWIDTH 97 0
DWIDTH 7 0
BBX 7 52 0 1
BITMAP
10
38
38
7C
FE
FE
FE
FE
FE
FE
7E
7C
7C
7C
7C
7C
7C
7C
7C
7C
3C
38
38
38
38
38
38
38
38
38
18
10
10
10
10
10
10
10
10
10
00
00
00
00
00
10
38
7C
FE
7C
38
10
ENDCHAR
STARTCHAR 0022
ENCODING 34
SWIDTH 208 0
DWIDTH 15 0
BBX 14 14 0 39
BITMAP
1020
3870
7CF8
FEFC
7EFC
3E7C
3C78
3C78
3C78
3870
3870
7060
60C0
8100
ENDCHAR
STARTCHAR 0023
ENCODING 35
SWIDTH 208 0
DWIDTH 15 0
BBX 14 14 0 -8
BITMAP
1020
3870
7CF8
FFFC
7EFC
3E7C
3C7C
3C78
3C78
3870
3870
3060
60C0
4080
ENDCHAR
STARTCHAR 0024
ENCODING 36
SWIDTH 569 0
DWIDTH 41 0
BBX 39 45 0 1
BITMAP
0000000080
0000000380
0000000E1C
0000003C3C
000003F87E
00000FF9FE
000007FB3E
000003FE3E
000003F81E
000003F01C
000003F01C
000003F018
000003F030
000003FFFE
001C03FFFC
007E03FFF8
00FF83FFF8
01FFE7FFF8
077FFFF800
0E3FFFF800
3E0FFBF800
3E07F3F800
7E01E3F800
7E0043F800
7E0003F800
FE0003F800
FC0003F800
FC0003F800
FE0003F800
FE0003F800
FE0003F800
FE0003F800
FE0003F800
7F0003F800
7F0003F800
7F0003F800
3F8067F800
3FC0C7FE00
1FFF1FFF82
1FFE1FFFCC
0FFC03FFF8
07F0007FE0
03E0001FC0
01C0000F80
0080000200
ENDCHAR
STARTCHAR 0026
ENCODING 38
SWIDTH 569 0
DWIDTH 41 0
BBX 39 45 0 1
BITMAP
0000000180
0000000788
0000001E18
0000007C3C
000003F8FC
00000FF9FE
000007F37E
000003FC3E
000003F81E
000003F01C
000003F01C
000003F018
000003F030
001003FFFC
003803FFFC
007E03FFF8
00FF07FFF8
03FFC7FFF0
06FFFFF000
1E3FFBF000
3E1FF3F000
7E07E3F000
7C01E3F000
7C0043F000
FC0003F000
FC0003F000
FC0003F000
FC0003F000
FC0003F000
FC0003F000
FC0003F000
FE0003F000
FE0003F000
FE0003F000
7F0003F000
7F0007F000
7F8067F800
3FC1CFFE00
3FFF1FFF06
1FFE1FFFCC
0FF803FFF0
0FF000FFE0
07E0003FC0
03C0000F80
0080000200
ENDCHAR
STARTCHAR 002C
ENCODING 44
SWIDTH 97 0
DWIDTH 7 0
BBX 7 14 0 -8
BITMAP
10
38
7C
FE
7E
3E
3C
3C
3C
38
38
30
60
40
ENDCHAR
STARTCHAR 002E
ENCODING 46
SWIDTH 97 0
DWIDTH 7 0
BBX 7 7 0 0
BITMAP
10
38
7C
FE
7C
38
10
ENDCHAR
STARTCHAR 0030
ENCODING 48
SWIDTH 527 0
DWIDTH 38 0
BBX 36 52 0 0
BITMAP
0000400000
0000600000
0000F00000
0001F80000
0003FC0000
0007FE0000
000FFF0000
001FFF8000
0037FFC000
0063FFE000
00C0FFF800
01C07FFC00
03803FFE00
07001FFF00
07000FFF00
0F0003FF80
1E0001FFC0
1E0000FFC0
3E00007FE0
3E00007FE0
7C00003FE0
7C00001FE0
7C00001FF0
7C00000FF0
FC00000FF0
FE00000FF0
FE000007F0
FE000007F0
FE000007F0
FF000007E0
FF000007E0
FF800007E0
7FC00007C0
7FE00007C0
7FF0000F80
7FF8000F80
3FFC000F00
3FFE001E00
1FFF001C00
0FFF803800
07FFC07000
03FFE06000
01FFF8C000
00FFFD8000
007FFF0000
001FFE0000
000FFE0000
0007FC0000
0003F80000
0001F00000
0000E00000
0000400000
ENDCHAR
STARTCHAR 0031
ENCODING 49
SWIDTH 333 0
DWIDTH 24 0
BBX 23 52 0 0
BITMAP
000002
00000E
00007C
0007F0
01FFE0
07FFE0
03FFC0
00FFC0
007FC0
007F80
007F80
007F80
007F80
007F80
007F80
007F80
007F80
007F80
007F80
007F80
007F80
007F80
007F80
007F80
007F80
007F80
007F80
007F80
007F80
007F80
007F80
007F80
007F80
007F80
007F80
007F80
007F80
007F80
007FC0
007FC0
00FFE0
00FFF8
00FFFC
01FFE0
03FF00
03F800
07C000
0F0000
3C0000
780000
E00000
400000
ENDCHAR
STARTCHAR 0032
ENCODING 50
SWIDTH 541 0
DWIDTH 39 0
BBX 37 51 0 1
BITMAP
0006000000
000E000000
001F000000
001FE00000
003FFC0000
007FFF0000
00FFFFC000
01FFFFF000
03FFFFF800
07FFFFFC00
0F87FFFE00
1C007FFF00
38001FFF80
700007FF80
E00003FF80
000001FFC0
000000FFC0
0000007FC0
0000007F80
0000007F80
0000007F80
0000007F00
0000007E00
000000FC00
000001F800
000003F000
000007E000
00000F8000
00001E0000
00003C0000
0000700000
0001E00000
0003800000
0007000000
000C000010
0018000018
0030000030
0060000060
00DFF00060
01FFFE00C0
03FFFF8180
03FFFFFF80
07FFFFFF00
0FFFFFFE00
1FFFFFFE00
1FFFFFFC00
3FF3FFFC00
7E000FF800
780001F800
F000007800
C000001000
ENDCHAR
STARTCHAR 0033
ENCODING 51
SWIDTH 444 0
DWIDTH 32 0
BBX 27 52 0 0
BITMAP
00100000
003E0000
007FC000
00FFE000
01FFF800
03FFFC00
07FFFE00
0FFFFE00
1F0FFF00
3C03FF00
7001FF00
4001FF00
0000FF00
0000FE00
00007E00
00007C00
00007800
0000F000
0000E000
0001C000
0001E000
0007F000
000FF800
003FFC00
00FFFE00
03FFFF00
0FFFFF80
1E01FF80
1800FFC0
00007FC0
00003FC0
00001FE0
00001FE0
00001FE0
00000FE0
00000FE0
00000FE0
00000FC0
00000FC0
00000FC0
00000F80
00000F80
00000F80
00000F00
7C001E00
7E001C00
FE003800
FF007000
FFC1E000
7FFFC000
7FFF0000
3FF80000
ENDCHAR
STARTCHAR 0034
ENCODING 52
SWIDTH 527 0
DWIDTH 38 0
BBX 35 52 1 0
BITMAP
000007FFE0
00000FFF80
00001FFF00
00001FFE00
000037FC00
000077FC00
0000E7F800
0000C7F800
000187F800
000387F800
000707F800
000607F800
000C07F800
001C07F800
001807F800
003007F800
006007F800
00E007F800
00C007F800
018007F800
030007F800
070007F860
060007F8E0
0C0007FFE0
1FFFFFFFE0
3FFFFFFFE0
3FFFFFFFE0
7FFFFFFFE0
FFFFFFFFE0
FFFFFFFFE0
000007F800
000007F800
000007F800
000007F800
000007F800
000007F800
000007F800
000007F800
000007FC00
000007FC00
000007FE00
000007FF00
00000FFF80
00000FFF00
00001FF000
00001F8000
00003E0000
00007C0000
0001F00000
0003C00000
000F000000
0004000000
ENDCHAR
STARTCHAR 0035
ENCODING 53
SWIDTH 444 0
DWIDTH 32 0
BBX 24 52 0 0
BITMAP
000003
000006
07FFFE
07FFFE
0FFFFC
0FFFFC
0FFFFC
1FFFF8
1FFFF8
1FFFF8
3F0000
300000
200000
600000
700000
780000
7F0000
7FC000
7FF000
FFF800
FFFE00
FFFF00
FFFF80
3FFFC0
07FFE0
01FFE0
007FF0
003FF8
001FF8
000FF8
0007FC
0003FC
0003FC
0001FC
0001FC
0001FC
0001FC
0001F8
0001F8
0003F0
0003F0
0007E0
0007E0
000FC0
001F80
003F00
007E00
00F800
01F000
07C000
3F0000
380000
ENDCHAR
STARTCHAR 0036
ENCODING 54
SWIDTH 486 0
DWIDTH 35 0
BBX 30 52 0 0
BITMAP
00000800
00001C00
00001F00
00003F80
00007F00
00007E00
0000FC00
0000F800
0001F000
0003E000
0003C000
00078000
00070000
000E0000
001C0000
00180000
00300000
00200000
00607000
00C0FC00
0081FF00
0183FF80
0307FFC0
030FFFE0
063FFFF0
06707FF0
0CE01FF8
0CC007F8
1C0003FC
180001FC
380001FC
380000FC
780000FC
780000F8
780000F8
780000F8
F80000F0
FC0000E0
FC0000E0
FE0001C0
FF000180
FF800300
FFC00600
7FF83C00
7FFFF800
3FFFF000
1FFFE000
0FFFC000
07FF8000
03FF0000
00FE0000
003C0000
ENDCHAR
STARTCHAR 0037
ENCODING 55
SWIDTH 513 0
DWIDTH 37 0
BBX 35 51 0 1
BITMAP
0600000000
0780000000
07FFFFFFE0
07FFFFFFE0
0FFFFFFFC0
0FFFFFFF80
0FFFFFFF80
1FFFFFFF80
1FFFFFFF00
3FFFFFFF00
3FFFFFFE00
3E00000C00
7800000C00
6000001800
6000003800
C000003000
C000007000
000000E000
000000E000
000001E000
000003C000
000003C000
0000078000
0000078000
00000F0000
00000F0000
00001F0000
00001E0000
00003E0000
00003E0000
00007C0000
0000FC0000
0000FC0000
0000FC0000
0001F80000
0001F80000
0003F80000
0003F80000
0007F00000
0007F00000
0007F00000
000FF00000
000FF00000
000FF00000
000FF00000
001FE00000
001FE00000
001FE00000
001FE00000
001FE00000
003FE00000
ENDCHAR
STARTCHAR 0038
ENCODING 56
SWIDTH 555 0
DWIDTH 40 0
BBX 35 51 0 1
BITMAP
0001E00000
0003F00000
0007FC0000
000FFF0000
003FFFC000
007FFFF000
01CFFFF800
0381FFFC00
07003FFE00
0E0007FF00
1E0000FF00
1E00003F00
3E00001F80
3F00001F00
3F80000F00
3FC0000E00
3FE0001C00
3FFC003800
3FFF007000
3FFFF0C000
1FFFFF8000
0FFFFFC000
0FFFFFF000
07FFFFF800
01FFFFFE00
01FFFFFF00
030FFFFF80
0600FFFFC0
1E001FFFC0
3C0003FFE0
3C0000FFE0
7800003FE0
7800001FE0
7800000FC0
7C000007C0
FC000007C0
7F00000780
7F80000780
7FE0000F00
7FF8000F00
3FFF001C00
1FFFE03800
0FFFF86000
07FFFFC000
03FFFF0000
00FFFE0000
001FF80000
000FF00000
0003C00000
0001800000
0000800000
ENDCHAR
STARTCHAR 0039
ENCODING 57
SWIDTH 458 0
DWIDTH 33 0
BBX 29 52 0 -1
BITMAP
0000C000
0001F800
0003FE00
0007FF80
000FFFC0
001FFFE0
003FFFF0
007FFFF0
00E0FFF8
01803FF8
03000FF8
060007F8
0E0003F8
1C0003F8
3C0001F8
3C0001F8
780000F8
780000F8
F80000F8
FC0000F0
FC0000F0
FC0000F0
FE0000E0
FE0000E0
FF0000C0
FFC01DC0
7FF03980
7FFFF180
3FFFC300
1FFF8200
0FFF0600
07FE0400
01FC0C00
00F81800
00301000
00003000
00006000
0000C000
0001C000
00038000
00078000
000F0000
001E0000
003E0000
007C0000
00FC0000
01F80000
03F00000
07F00000
07E00000
01E00000
00C00000
ENDCHAR
STARTCHAR 003A
ENCODING 58
SWIDTH 97 0
DWIDTH 7 0
BBX 7 18 0 0
BITMAP
10
38
78
FC
7C
38
10
00
00
00
00
10
38
7C
FE
7C
38
10
ENDCHAR
STARTCHAR 003B
ENCODING 59
SWIDTH 97 0
DWIDTH 7 0
BBX 7 25 0 -8
BITMAP
10
38
78
FC
7C
38
10
00
00
00
00
10
38
7C
FE
7E
3E
3C
3C
3C
38
38
30
60
40
ENDCHAR
STARTCHAR 0040
ENCODING 64
SWIDTH 569 0
DWIDTH 41 0
BBX 39 45 0 1
BITMAP
0000000180
0000000788
0000001E18
0000007C3C
000003F8FC
00000FF9FE
000007F37E
000003FC3E
000003F81E
000003F01C
000003F01C
000003F018
000003F030
001003FFFC
003803FFFC
007E03FFF8
00FF07FFF8
03FFC7FFF0
06FFFFF000
1E3FFBF000
3E1FF3F000
7E07E3F000
7C01E3F000
7C0043F000
FC0003F000
FC0003F000
FC0003F000
FC0003F000
FC0003F000
FC0003F000
FC0003F000
FE0003F000
FE0003F000
FE0003F000
7F0003F000
7F0007F000
7F8067F800
3FC1CFFE00
3FFF1FFF06
1FFE1FFFCC
0FF803FFF0
0FF000FFE0
07E0003FC0
03C0000F80
0080000200
ENDCHAR
STARTCHAR 0041
ENCODING 65
SWIDTH 722 0
DWIDTH 52 0
BBX 49 52 0 -1
BITMAP
00078000002000
007FC00000C000
01FFF000038000
07FFF800078000
0EFFFC001F0000
101FFE003F0000
300FFE007F0000
7007FF00FF0000
7003FF01FE0000
F803FF81FE0000
FC01FF81FE0000
FE00FF81FE0000
7E00FF81FE0000
7800FFC1FE0000
30007FC1FE0000
00007F81FE0000
00007F81FE0000
00007F81FE0000
00007F81FE0000
00003F81FE0000
00003F01FE0000
00003F01FE0000
00003E01FE0000
00007E01FE0000
00007E01FE0000
00007C01FE0000
00007801FE0000
00007801FE0000
0000F001FE0000
0000F001FE0000
0000E001FE0000
0001C001FE0000
00018001FE0000
00038001FE0000
00070001FE0000
00060001FE0000
000C0001FE0000
00180001FE0000
003E0001FE0000
007F8001FE0000
00FFE001FE0000
03FFF001FE0000
07FFFC01FF0000
00FFFE01FF0000
001FFF03FF0000
0007FF86FF0080
0003FFD8FF8300
0000FFF07FFE00
00007FE07FF800
00003F801FF000
00000F000FE000
00000600018000
ENDCHAR
STARTCHAR 0042
ENCODING 66
SWIDTH 888 0
DWIDTH 64 0
BBX 56 52 0 -1
BITMAP
00030000010000
000FF000030000
001FF8000F8000
007FFE001FC000
00FFFF007FC000
03FFFF80FFE000
0FFFFFC3FFF000
1FFFFFE73FF800
003FFFFC1FFC00
0007FFF80FFF00
0001FFF807FFE0
0000FFF803FF80
00007FFC03FF00
00003FFC01FC00
00001FFE007800
00000FFE006000
00000FFE01C000
000007FE03FC00
000007FF07FF00
000003FF1FFFC0
000003FF3FFFE0
000003FE7FFFF0
000003FEFFFFF8
000003FFEFFFFC
000003FF00FFFC
000003FE001FFE
000003FC000FFE
000003FC0007FE
000003F80003FF
000003F80001FF
000007F00001FF
000007E00001FF
000007C00000FF
00000FC00000FF
00001F800000FF
00001E000000FF
00003C000000FF
000078000000FE
0001E0000000FE
000780000000FE
001E00000001FC
00F800000001FC
0FC3F0000003F8
FE0FFC000003F0
60FFFF000007E0
0FFFFF80000FC0
3FFFFFE0001F00
003FFFFC003E00
000FFFFFF0F800
0003FFFFFFC000
0000FFFFFF0000
00000FFFF00000
ENDCHAR
STARTCHAR 0043
ENCODING 67
SWIDTH 680 0
DWIDTH 49 0
BBX 47 53 -1 -2
BITMAP
000000300000
000003FFF7F0
00000FFFFFF0
00007FFFFFF0
0000DFFFFFF0
00031FFFFFE0
000E1FFFFFE0
001C1FFFFFC0
00381FFFFFC0
00701FF00000
00F01FF00000
01E01FF00000
01E00FF00000
03C00FF00000
07C00FF00000
07C00FF00000
0F800FF00000
1F800FF00000
1F800FF00000
1F800FF00000
3F000FF00000
3F000FF00000
7F000FF00000
7F000FF00000
7F000FF00000
7F000FF00000
7F000FF00000
7F000FF00000
FF000FF00000
FF800FF00000
7F800FF00000
7F800FF00000
7F800FF00000
7FC00FF00000
7FC00FF00000
7FE01FE00000
3FF01FC00000
3FF01F000000
1FF81E000000
1FFE3C000002
0FFFB0000006
07FFE000001C
07FFF000007C
03FFFC0001F8
01FFFFE03FF8
00FFFFFFFFF0
007FFFFFFFF0
001FFFFFFFE0
000FFFFFFFC0
0003FFFFFF00
0000FFFFFE00
00001FFFF800
000001FF8000
ENDCHAR
STARTCHAR 0044
ENCODING 68
SWIDTH 847 0
DWIDTH 61 0
BBX 51 51 0 0
BITMAP
10000000000000
18000000000000
3C000000000000
3F000000000000
7FE00000000000
FFFFFFC0000000
FFFFFFFF000000
FFFFFFFFE00000
FFFFFFFFF80000
7FFFFFFFFE0000
1FFFFFFFFF8000
0FFFFFFFFFC000
01FFFFFFFFE000
0007FFFFFFF000
0000606FFFFC00
0000C0C0FFFC00
000181803FFE00
000303000FFF00
0007060007FF80
00060E0003FF80
000C3E0000FFC0
00187E0000FFC0
0038FE00007FC0
0031FF00003FE0
0070FF00001FE0
00F07F80000FE0
00F03FC0000FE0
01F83FC00007E0
01F81FE00007E0
03FC0FF00003E0
03FE0FF80003E0
07FE07F80003E0
07FF07F00001E0
07FF03C00001E0
001F03000001E0
000786000001C0
00019C000001C0
0001B000000180
00016000000180
0001C000000100
0003E000000300
0007FC00000200
000FFF80000600
001FFFE0000C00
003FFFF8001800
007FFFFF003000
00FFFFFFFBE000
01FFFFFFFF8000
03800FFFFF0000
0200007FFC0000
00000007E00000
ENDCHAR
STARTCHAR 0045
ENCODING 69
SWIDTH 722 0
DWIDTH 52 0
BBX 44 51 1 0
BITMAP
000038030000
0000E00E0000
0003C03C0380
0007807C0FE0
001F01F83FE0
003E03F87FF0
007E0FF1FFF0
00FE1FF3FFF0
01FE0FFFFFF0
01FE07F80FF0
01FE07F007F0
01FE07F003F0
01FE07F003E0
01FE07F003E0
01FE07F001E0
01FE07F001C0
01FE07F00180
01FE07F00380
01FE07F00300
01FE07F00200
01FE07FFFFF0
01FE07FFFFF0
01FE07FFFFF0
01FE07FFFFE0
01FE07FFFFE0
01FE07FFFFC0
01FC07F00000
01FC07F00000
01FC07E00000
01F807E00000
03F80FC00000
03E01F800000
07C07E000000
0F01F8000000
3C07C0000000
E03FFC000000
01FFFF000000
0FFFFF800000
3C07FFC00000
0000FFF00000
00007FF80000
00003FFC0000
00001FFE0000
00000FFF0000
000007FF8000
000003FFE010
000001FFF070
000000FFFFC0
0000007FFF00
0000001FFC00
000000018000
ENDCHAR
STARTCHAR 0046
ENCODING 70
SWIDTH 555 0
DWIDTH 40 0
BBX 36 60 -1 -9
BITMAP
00001FF000
00007FFF80
0000E0FF00
0001C07F00
0003C07F80
0003807F80
0007807F80
0007807F80
0007807F80
0007800000
000FC00000
000FC00000
000FC00000
0007C00000
0007E00000
0007E00000
0007E00000
0007F00000
0007F00000
0007F80000
0007FFFF80
0007FFFF80
000FFFFF80
000FFFFF80
001FFFFF00
001FFFFF00
0003FFC000
0001FFC000
0001FFE000
0000FFF000
00007FF800
00003FF800
00001FFC00
00001FFE00
00000FFE00
000007FF00
000003FF80
000001FF80
000001FF80
000000FFC0
0000007FC0
0000007FE0
0000003FE0
0000003FE0
0000001FF0
01C0001FF0
1FC0000FF0
FFC0000FF0
3FC0000FF0
1FE00007F0
0FE00007F0
0FE0000FE0
07F0000FE0
03F8000FC0
01F8000FC0
00FC001F80
003E003F00
001F807E00
000FC0F800
0003FFC000
ENDCHAR
STARTCHAR 0047
ENCODING 71
SWIDTH 708 0
DWIDTH 51 0
BBX 47 50 0 0
BITMAP
00000F800000
00001FE00000
00007FF80300
0000FFFE0300
00033FFFC300
00061FFFFE00
001C07FFFE00
003801FFFC00
0070007FFC00
01F0003FF800
03E0000FF000
07C0001BE000
07C00038C000
0F8000780000
1F8000F80000
3F0003F00000
3F0007F00000
7F000FF00000
7E000FF00100
7E000FF003C0
FE000FF007E0
FE000FF01FF0
FE000FF03FF8
FE000FF07FF8
FE0007F0FFFC
FE0007F3FFFC
FE0007F603FC
FF0007FC01FE
FF0007F800FE
FF0007F800FE
FF0007F800FE
FF8007F8007E
7F8007F8007E
7FC007F8007E
3FC007F8007E
3FE007F8007C
1FF007F8007C
1FF007F8007C
0FF807F80078
0FFC07F80078
07FE07F00070
03FF07F00070
01FF87C000E0
00FFC70000C0
007FE6000180
003FFC000700
000FFE001E00
0003FFFFF800
0000FFFFE000
00001FFE0000
ENDCHAR
STARTCHAR 0048
ENCODING 72
SWIDTH 722 0
DWIDTH 52 0
BBX 45 57 0 -6
BITMAP
000000C00000
0000007C0000
0000000FC000
0000001FFE00
0000001FFC00
0000003FFC00
0000007FF800
0000007FF000
000000FFE000
000001FFC000
000003FF8000
000007FE0000
00000FFC0000
00001FF00000
00003FE00000
00007F800000
0000FE000000
0001F8000000
0007E0000000
000F80000000
001E00000000
007800007800
00E00007FC00
0380001FFE00
070000FFFF00
1F0003FFFF00
7F8007FFFF80
FF801FFFFFC0
7FC03E07FFC0
3FC0F001FFE0
1FE1C000FFE0
1FE700007FF0
0FEE00003FF0
0FF800001FF0
07F000001FF8
07E000000FF8
078000000FF8
030000000FF8
0200000007F8
0000000007F8
0000000007F8
0001000007F8
0007C00007F8
000FE00007F8
001FE00007F8
001FE00007F0
001FC0000FF0
001F80000FE0
001E00000FC0
001E00001FC0
001C00003F80
001E00007E00
000E0000FC00
00070003F000
0001E01FC000
00007FFE0000
000001800000
ENDCHAR
STARTCHAR 0049
ENCODING 73
SWIDTH 638 0
DWIDTH 46 0
BBX 43 52 1 -1
BITMAP
000600000000
001F80000000
003FC0000600
00FFF0000C00
03FFFC000980
0FFFFF003100
187FFFC07300
381FFFFFE200
3007FFFFC600
7001FFFF8C00
78007FFF0C00
78001FFE1C00
7C0003FC1800
780000203800
700000003800
200000007C00
000000007C00
00000000FC00
00000000FE00
00000001FE00
00000001FE00
00000001FF00
00000001FF00
00000001FF00
00000000FF00
00000000FF80
00000000FF80
000000007F80
000000007F80
000000007FC0
000000003FC0
000000003FC0
000000003FC0
000000001FE0
00C000001FE0
01F000001FE0
03F800000FC0
0FFE00000FC0
1FFF00000F80
3FFFC0000F80
7FFFF0000F00
E3FFFC000E00
80FFFF001C00
003FFFE03000
000FFFFFE000
0007FFFFC000
0001FFFF0000
00007FFE0000
00003FF80000
00000FF00000
000003E00000
000000C00000
ENDCHAR
STARTCHAR 004A
ENCODING 74
SWIDTH 652 0
DWIDTH 47 0
BBX 44 66 1 -14
BITMAP
000600000000
001F80000000
003FC0000600
00FFF0000C00
03FFFC000980
0FFFFF003100
187FFFC07300
381FFFFFE200
3007FFFFC600
7001FFFF8C00
78007FFF0C00
78001FFE1C00
7C0003FC1800
780000203800
700000003800
200000007C00
000000007C00
00000000FC00
00000000FE00
00000001FE00
00000001FE00
00000001FF00
00000001FF00
00000001FF00
00000000FF00
00000000FF80
00000000FF80
000000007F80
000000007F80
000000007FC0
000000007FC0
000000007FC0
000000003FC0
000000003FC0
000000003FE0
000000003FE0
000000003FE0
000000001FE0
000000001FE0
000000001FE0
000000001FE0
000000001FE0
000000000FF0
000000000FF0
000000000FF0
0000000007F0
0000000007F0
0000000007F0
0040000007F0
01F0000007E0
03F8000003E0
07FE000003E0
0FFF000003E0
3FFFC00003C0
7FFFF00003C0
E3FFFC000380
C07FFF800600
003FFFF00C00
000FFFFFF800
0003FFFFE000
0000FFFF8000
00003FFE0000
00001FFC0000
000007F00000
000001E00000
000000400000
ENDCHAR
STARTCHAR 004B
ENCODING 75
SWIDTH 750 0
DWIDTH 54 0
BBX 50 52 0 0
BITMAP
00000080200000
00000180600000
00000380F00000
00000781F80000
00000F83F80000
00001F87FC0000
03003F8FFE0000
0780FFBFFF0000
0FE3FFE3FF8000
3FFF7FC1FFC000
7FFE7F81FFF000
FFFC7F80FFF800
7FF87F807FF000
3FF07F803FE000
0FE07F801F8000
03807F801F0000
00007F800C0000
00007F80180000
00007F80600000
00007F80C00000
00007F83E00000
00007F87E00000
00007F9FF00000
00007FBFF00000
00007FEFF80000
00007FC7F80000
00007F87FC0000
00007F87FC0000
00007F03FE0000
00007F03FF0000
00007F01FF0000
00007E00FF8000
00007E00FF8000
00007E007FC000
00007C007FC000
00007C003FE000
000078003FE000
000078001FF000
0000F0001FF000
0000E0000FF800
0000E0000FF800
0000C38007FC00
000187E007FC00
00019FFC03FE00
00033FFFF9FF00
0007FFFFF1FFC0
001FFFFFE0FFC0
007FFFFFC0FF80
03FF1FFF807F00
1F8000FF003E00
1800003E003C00
0000000C001800
ENDCHAR
STARTCHAR 004C
ENCODING 76
SWIDTH 666 0
DWIDTH 48 0
BBX 45 52 0 0
BITMAP
000000000400
000000001C00
00000000F800
0000000FF000
000000FFE000
00000FDFC000
00007E1FC000
0003F83FC000
0007F83FC000
000FF03FC000
001FF03FC000
001FE03FC000
003FE03FC000
003FE03FC000
003FE03FC000
003FE03FC000
003FE03FC000
003FE03FC000
003FE03FC000
003FE03FC000
003FE03FC000
003FE03FC000
003FC03FC000
003FC07F8000
003FC07F8000
003FC07F8000
003FC07F0000
003FC07F0000
003FC0FE0000
003FC0FC0000
003FC1F80000
007F83E00000
007F87C00000
007F0F000000
00FF3C000000
00FEE0000000
01FF80000000
03FC00000000
07E000000000
1F01E0000000
781FFC000000
E0FFFF000000
07FFFFC00000
3E03FFF00000
3000FFF80018
00007FFE0030
00003FFF80E0
00000FFFFFC0
000007FFFF80
000001FFFE00
0000007FF800
0000000FC000
ENDCHAR
STARTCHAR 004D
ENCODING 77
SWIDTH 972 0
DWIDTH 70 0
BBX 66 52 1 0
BITMAP
008000000000000000
018000000000000000
0300001C0000700000
0F00003F0000FC0000
1F00007FC001FE0000
3F0000FFC003FF0000
7F8001FFE007FF8000
FF8003FFE00FFFE000
FFC00FFFE03FFFF880
7FC01FFFF07BFFFFC0
7FE03FFFF0C07FFF00
3FF0707FF1803FFE00
3FF0C03FF3001FFC00
1FF9801FF60007F800
0FFB000FFC00007000
0FFE000FF80001E000
07FC000FF00003E000
07FC000FF00007C000
03FC000FF0000FC000
03FC000FF0001FC000
01FC000FF0001FC000
01FC000FF0003FC000
01FC000FF0003FC000
01F8000FF0003FC000
01F8000FF0003FC000
01F8000FF0003FC000
01F0000FF0003FC000
01F0000FF0003FC000
01E0000FF0003FC000
01C0000FF0003FC000
01C0000FF0003FC000
0380000FF0003FC000
0380000FF0003FC000
0300000FF0003FC000
0600000FF0003FC000
0600000FF0003FC000
0400000FF0003FC000
0F00000FF0003FC000
1FC0000FF0003FC000
1FE0180FF0003FC000
3FF0300FF0003FC000
7FF8600FF0003FC180
7FFCC00FF0003FFF00
FFFF800FF0003FFC00
FFFF000FF0003FF000
3FFE000FF0003FC000
0FFC000FC0003F8000
03F8000F00003E0000
01F0000E00007C0000
00E0000C0000F00000
006000080001C00000
000000000001000000
ENDCHAR
STARTCHAR 004E
ENCODING 78
SWIDTH 666 0
DWIDTH 48 0
BBX 45 52 0 0
BITMAP
020000000000
060007C00000
0E001FF00000
0E003FFC0000
1E003FFE0000
3E007FFF0000
3E00FFFFC000
7F01FFFFE000
7F01FFFFF830
FF03C03FFE60
FF87001FFFC0
FF86000FFFC0
7FCC0003FF80
7FD80001FF00
3FF800007F00
3FF000001E00
1FE000000600
1FE000000C00
0FC000001C00
0FC000001C00
07C000003800
078000003800
078000007800
038000007800
030000007800
03000000F800
03000000F800
03000000F800
03000001F800
03000001F800
03000001F800
07000001F800
07000001F800
07800001F800
0F800001F800
1FC00001FC00
1FE00181FC00
3FF00301FC00
7FF80601FE00
FFFC0C01FE00
7FFE0C01FF18
1FFE1800FFF0
0FFF3000FFE0
03FF6000FFC0
01FFE000FF80
00FFC000FF00
007F80007E00
003F00007C00
003F00007800
001E00007000
000C00006000
000400004000
ENDCHAR
STARTCHAR 004F
ENCODING 79
SWIDTH 791 0
DWIDTH 57 0
BBX 50 52 0 0
BITMAP
00000040000000
000001C0000000
000003C00C0000
00001FC01C0000
00007FC03C0000
0001FFC07E0000
00079FC1FE0000
000F1FC3FF0000
003E1FC67F0000
007C1FCC7F8000
00F81FF87FC000
01F01FF07FC000
03E01FC03FE000
07E01FC03FF000
0FC01FC03FF800
1FC01FC03FFC00
3F801FC01FFC00
3F801FC01FFE00
7F801FC00FFE00
7F001FC007FF00
7F001FC007FF00
FF001FC003FF80
FF001FC001FF80
FF001FC001FF80
FF001FC000FFC0
FF001FC0007FC0
FF001FC0003FC0
FF001FC0003FC0
FF001FC0001FC0
FF001FC0000FC0
FF801F80000FC0
FF803F800007C0
FFC03F00000780
7FC03E00000780
7FE03C00000780
7FE07800000700
3FF07000000F00
3FF8E000000E00
1FFCC000001E00
0FFF8000001C00
0FFF0000003800
07FFC000007000
03FFF00000E000
01FFFC0003C000
00FFFFC00F8000
003FFFFFFE0000
001FFFFFFC0000
000FFFFFF00000
0003FFFFC00000
0000FFFF000000
00001FF8000000
000003C0000000
ENDCHAR
STARTCHAR 0050
ENCODING 80
SWIDTH 666 0
DWIDTH 48 0
BBX 45 65 0 -13
BITMAP
018000180000
03C0003F0000
03E0007FC000
07F001FFF000
0FF803FFF800
0FF807FFFC00
1FFC0FFFFE00
3FFC1FFFFF00
7FFC3FFFFF80
FFFE7CFFFFC0
3FFEE007FFE0
07FF8003FFE0
03FF0000FFF0
03FF00007FF0
01FF00003FF0
01FF00001FF8
01FF00001FF8
01FF00000FF8
01FF00000FF8
01FF000007F8
01FF000007F8
01FF000007F8
01FF000003F8
01FF000003F8
01FF000003F8
01FF000003F8
01FF000003F0
01FF000003F0
01FF000003F0
01FF000003E0
01FF000003E0
01FF000003E0
01FF000003C0
01FF000003C0
01FF00000380
01FF00000700
01FF00000700
03FF80000E00
07FFE0000C00
0FFFF8001800
0FFFFE003800
1FFFFF803000
3FFFFFE0E000
7FFFFFFFC000
E1FFFFFF8000
41FFFFFF0000
01FFFFFE0000
01FF7FFC0000
00FF0FF80000
00FF03F80000
00FF00F00000
00FE00600000
00FE00000000
00FE00000000
00FE00000000
00FE00000000
00FC00000000
007C00000000
007C00000000
007C00000000
007800000000
003800000000
003800000000
003000000000
001000000000
ENDCHAR
STARTCHAR 0051
ENCODING 81
SWIDTH 777 0
DWIDTH 56 0
BBX 53 52 0 0
BITMAP
00000040000000
000001C0000000
000003C00C0000
00001FC01C0000
00007FC03C0000
0001FFC07C0000
00079FC1FE0000
001F1FC3FF0000
003E1FC67F0000
00781FCC7F8000
01F81FF87FC000
03F01FF07FC000
07E01FC03FE000
0FE01FC03FF000
0FC01FC03FF800
1FC01FC01FFC00
3F801FC00FFE00
3F801FC007FE00
7F801FC003FF00
7F001FC003FF00
7F001FC001FF80
FF001FC000FF80
FF001FC0007F80
FF001FC0003FC0
FF001FC0001FC0
FF001FC0001FC0
FF001FC0001FC0
FF001FC0000FC0
FF001FC0000FC0
FF001FC0000FC0
FF801F80000FC0
FF803F800007C0
FF803F000007C0
7FC03E00000F80
7FE03C00000F80
7FE07800000F00
3FF07000000F18
1FF8E000000E38
1FFCC000001E78
0FFF8000003CF0
07FF00000039F0
07FFC0000073F0
03FFF00000E3F0
01FFFC0003C7F0
00FFFFC00F87F0
007FFFFFFE0FF0
001FFFFFFC0E00
000FFFFFF01C00
0003FFFFC01800
0000FFFF003000
00001FF8003000
000003C0000000
ENDCHAR
STARTCHAR 0052
ENCODING 82
SWIDTH 777 0
DWIDTH 56 0
BBX 54 52 0 1
BITMAP
007F0000000000
00FFC000078000
01FFE0001FE000
03FFF8003FF000
07FFFC007FF800
0FFFFE00FFFC00
1FFFFF01FFFC00
3FFFFF83FFFE00
78FFFFCFFFFE00
E01FFFFE0FFE00
000FFFF801FE00
0003FFF000FE00
0001FFF0007E00
0000FFF8007C00
00007FF8007C00
00003FF8007800
00001FF800F000
00001FF801E000
00000FF803C000
00000FF80F8000
000007F83F8000
000007F9FF8000
000007FFFF8000
000007FFFFC000
000007F1FFC000
000007E0FFC000
000007E07FC000
000007C07FE000
00000F803FE000
00000F803FE000
00001F003FF000
00003E001FF000
000038001FF000
0000F0001FF000
0001E0000FF800
000380000FF800
000F80000FFC00
003FC00007FC00
00FFE00007FC00
03FFF00007FE00
00FFF800E3FE00
007FFC0183FE00
001FFE0703FF00
000FFF0C01FF00
0007FF9801FF88
0007FFF001FFFC
0003FFC000FFE0
0001FF8000FF80
0000FE0000FF00
0000FC0000FC00
00007000007800
00002000006000
ENDCHAR
STARTCHAR 0053
ENCODING 83
SWIDTH 791 0
DWIDTH 57 0
BBX 55 51 0 0
BITMAP
00007FE0000000
0003FFFE000000
000FFFFF800000
003FFFFFF00010
00FFFFFFFE0030
01FFFFFFFFC0E0
03F07FFFFFFFE0
078007FFFFFFC0
060001FFFFFF80
0C00007FFFFF80
1800000FFFFF00
10000003FFFE00
300000007FFC00
300000000FFC00
2000000000F800
60000000003800
60000000003000
60000000006000
70000000004000
F000000000C000
F800000001C000
FC0000003FFC00
FF80000FFFFF00
FFFFFFFFFFFFC0
FFFFFFFFFFFFE0
FFFFFFFFFFFFF0
FFFFFFFFFFFFF8
FFFFFFFFFFFFFC
FFFFFFFFFFFFFC
CFFFFFFFFFFFFC
C7FFFFFFF83FFC
41FFFFFF800FFE
403FFFF00007FE
600060000003FE
600000000001FC
200000000001FC
300000000001FC
100000000001FC
180000000001F8
0C0000000003F8
0C0000000003F0
060000000007E0
03000000000FE0
01800000001FC0
00E00000003F80
0070000000FE00
003C000003FC00
000F00000FF000
0003E0007FC000
0000FFFFFE0000
00001FFFE00000
ENDCHAR
STARTCHAR 0054
ENCODING 84
SWIDTH 722 0
DWIDTH 52 0
BBX 49 51 0 0
BITMAP
01F00000000180
03FFFFFFFFFF80
03FFFFFFFFFF00
07FFFFFFFFFF00
07FFFFFFFFFF00
07FFFFFFFFFE00
0FFFFFFFFFFE00
1FFFFFFFFFFE00
1FFFFFFFFFFC00
3803FFFFFFFC00
2000E7F8000400
6001C7F0000000
C00387F0000000
000707F0000000
000E07F0000000
001C07F0000000
003C07F0000000
007807F0000000
00F807F0000000
00F807F0000000
01F007F0000000
03F007F0000000
03F007F0000000
03F007F0000000
07F007F0000000
07F007F0000000
07F007F0000000
07F007F0000000
07F807F0000000
07F807F0000000
07F807F0000000
07FC07F0000000
07FE07C0000000
07FE0780000000
03FF0700000000
03FF8E00000000
01FFDC00000000
01FFF000000180
00FFF000000380
00FFF800000700
007FFE00001E00
003FFF8000FC00
001FFFF803F800
000FFFFFFFF000
0007FFFFFFE000
0001FFFFFFE000
0000FFFFFFC000
00003FFFFF8000
00000FFFFF0000
000001FFFF0000
0000001FFE0000
ENDCHAR
STARTCHAR 0055
ENCODING 85
SWIDTH 666 0
DWIDTH 48 0
BBX 46 51 0 1
BITMAP
01C000001800
03E000003C00
07F000007E00
0FF80000FF00
1FFC0003FF80
1FFC000FFFE0
3FFC003FFFFC
7FFC000FFFF0
FFFC0007FFC0
0FFC0001FF80
07FC0001FF80
07FC0000FF00
03FC0000FF00
03FC0000FF00
03FC0000FF00
03FC0000FF00
03FC0000FF00
03FC0000FF00
03FC0000FF00
03FC0000FF00
03FC0000FF00
03FC0000FF00
03FC0000FF00
03FC0000FF00
03FC0000FF00
03FC0000FF00
03FC0000FF00
03FC0000FF00
03FC0000FF00
03FC0000FF00
03FC0000FF00
03FC0000FF00
03FC0000FF00
03FC0000FF00
03FC0000FF00
03FC0001FF00
03FC0003FF00
03FE0006FF00
07FF000CFF80
0FFF8018FFC0
1FFFC030FFF0
1FFFE060FFC0
07FFF8C0FF80
01FFFD81FF00
007FFF01FE00
001FFE01FC00
0007FC01F800
0003F801F000
0001F801E000
0000F001C000
000020010000
ENDCHAR
STARTCHAR 0056
ENCODING 86
SWIDTH 652 0
DWIDTH 47 0
BBX 43 52 1 0
BITMAP
0600000C0000
0F00001E0000
1F80003F8000
3FC0007FC000
7FE001FFE000
FFE003FFF000
FFF007FFF800
7FF01FFFFC00
3FF83FFFFE00
1FFC70FFFF00
0FFDC01FFF00
0FFF0007FF80
07FE0003FF80
03FE0001FF80
03FE0000FFC0
01FF00007FC0
01FF00007FC0
00FF00003FC0
00FF00003FC0
007F00001FC0
007F80001FE0
007F80000FE0
007F80000FE0
003F800007E0
003F800007C0
003F800007C0
003F800007C0
003F800003C0
003F800003C0
003F80000380
003F80000380
003F80000380
007F00000700
007F00000700
007F00000600
007F00000E00
00FE00000C00
00FF00001800
01FFC0001800
01FFF0003000
03FFFC006000
03FFFF00C000
07FFFFC08000
07FFFFE18000
007FFFF30000
000FFFFE0000
0003FFFC0000
0000FFF00000
00003FE00000
00000FC00000
000007000000
000002000000
ENDCHAR
STARTCHAR 0057
ENCODING 87
SWIDTH 944 0
DWIDTH 68 0
BBX 65 51 0 0
BITMAP
060000180000000000
0780001E0000180000
0FC0003F00003E0000
1FF0007FC0003F0000
1FF800FFE0007F8000
3FFC00FFF000FFC000
7FFC01FFF801FFE000
FFFE03FFFC03FFF000
3FFE07FFFE07FFF800
1FFF0E1FFE0FFFF800
0FFF1807FE1C3FFC00
07FF3003FE300FFC00
03FF6003FE6007FE00
01FFC001FEC001FE00
01FF8001FF8001FF00
00FF0000FF0000FF00
00FF0000FE00007F00
00FF0000FE00003F00
00FF0000FE00003F00
00FF0000FE00001F00
00FF0000FE00001F80
00FF0000FE00001F00
00FF0000FE00000F00
00FF0000FE00000F00
00FF0000FE00000F00
00FF0000FE00000F00
00FF0000FE00000F00
00FF0000FE00000E00
00FF0000FE00000E00
00FF0000FE00001E00
00FF0000FE00001C00
00FF0000FE00001C00
00FF0000FE00003800
00FF0000FE00003800
00FF0000FE00007000
00FF0000FE00006000
00FF0000FE0000E000
00FF0000FE0001C000
01FF0000FE00018000
03FF8000FF00030000
0FFF8000FFC0060000
03FFC020FFE0060000
01FFE0C0FFF80C0000
00FFF180FFFC180000
007FFB00FFFE300000
003FFE000FFFE00000
001FFC0003FFC00000
000FF00001FF000000
0007E000007E000000
0003C000003C000000
000180000018000000
ENDCHAR
STARTCHAR 0058
ENCODING 88
SWIDTH 722 0
DWIDTH 52 0
BBX 49 52 0 -1
BITMAP
00300000000000
007F000000FC00
00FFC00003FF00
01FFF00007FF80
03FFF8000FFF80
0FFFFC001FFF00
1FFFFE003FFE00
3FFFFF003FFE00
7FFFFF807FFC00
001FFFC07FF800
0007FFE0F0F800
0001FFE1C03000
0000FFF1800000
00007FF3000000
00003FFB000000
00001FFE000000
00001FFE000000
00000FFC000000
00000FFC000000
00000FFC000000
000007FC000C00
000007FC003800
003FFFFFFFF000
003FFFFFFFF000
003FFFFFFFE000
007FFFFFFFE000
007FFFFFFFC000
00FFFFFFFFC000
00FFFFFFFF8000
01FFFFFC3F8000
018007FC000000
030007FC000000
060007FC000000
000007FC000000
00000FFE000000
00000FFE000000
00000BFF000000
000019FF800000
000019FF800000
000030FFC00000
010030FFE00000
0380E0FFF80000
03E3E07FFC0100
07FFC03FFF8F80
0FFFC03FFFFF00
1FFF801FFFFE00
3FFF000FFFFC00
FFFF0007FFF000
7FFE0003FFE000
3FFC0000FFC000
1FF800003F8000
0FE000000F0000
ENDCHAR
STARTCHAR 0059
ENCODING 89
SWIDTH 722 0
DWIDTH 52 0
BBX 46 59 1 -7
BITMAP
003000001000
007C00003800
01FF0000FE00
03FFC001FF00
0FFFE003FF80
3FFFF007FFC0
7FFFF80FFFE0
F1FFFC1FFFF0
C03FFE71FFF0
001FFEC07FF8
000FFF803FF8
0007FF801FF8
0003FF801FFC
0001FFC00FFC
0000FFC00FFC
00007FC007FC
00007FE007FC
00003FE007FC
00003FE007FC
00001FE007FC
00001FE007F8
00001FE007F8
00001FF007F8
00001FF007F0
00001FF007F0
00000FF007E0
00000FF007E0
00000FF00FC0
00000FF00FC0
00000FF00F80
00000FF00F80
00000FF01F00
00000FF01E00
00000FF01E00
00000FF03C00
00000FE03800
00000FE07800
00000FE07000
0001FFE0E000
007FFFE1E000
03FFFFFDC000
07800FFF8000
0E000FFFE000
1C000FFFF800
18000FFFFC00
30000FF8FF00
30000FF07F80
30001FC01FC0
20001F800FE0
30001F0007F0
30007C0003F0
1800F00003F8
0F0FC00007F8
03FE000007FC
000000000FF8
000000000FF8
000000000FF0
000000000FF0
0000000003C0
ENDCHAR
STARTCHAR 005A
ENCODING 90
SWIDTH 513 0
DWIDTH 37 0
BBX 35 58 0 -7
BITMAP
01FF000000
03FFC00000
07FFF80000
0FFFFE0000
1FFFFFC0C0
3FFFFFFFC0
7FFFFFFF00
EFFFFFFE00
01FFFFFC00
003FFFF800
0007FFF000
0000FFE000
00000FC000
0000018000
0000030000
0000060000
00000C0000
0000180000
0000300000
0000780000
0000FE0000
0001FF8000
0003FFE000
0007FFF000
000FFFF800
001FFFFC00
003FFFFE00
007FFFFF00
00F0FFFF80
01C03FFF80
00000FFFC0
000003FFC0
000001FFC0
000000FFC0
0000007FE0
0000007FE0
0000003FE0
0000003FE0
0000001FC0
0000001FC0
0000001FC0
0F00001FC0
3FC0001FC0
3FE0001F80
7FE0001F80
7FF0001F00
FFF0003F00
FFF0003E00
FFE0007E00
FFE0007C00
7FC000F800
7F8001F000
3F8003E000
3FC007C000
1FE00F8000
07F01F0000
03FFFC0000
007FE00000
ENDCHAR
STARTCHAR 005C
ENCODING 92
SWIDTH 541 0
DWIDTH 39 0
BBX 37 61 0 -13
BITMAP
0000E00000
0007FE0000
000FFF8000
001FFFC000
003FFFC000
007FFFC000
00F01FE000
00C00FE000
01800FE000
01800FE000
01800FC000
03800FC000
03800FC000
03800FC000
03C00FC000
07E01FC000
07F01FC000
07F83FFFE0
0FFC3FFFE0
1FFC7FFFE0
3FFCFFFFE0
FFFCFFFFC0
FFFC0FE000
07F80FE000
07F80FE000
07F80FE000
07F80FE000
07F80FE000
07F80FE000
07F80FE000
07F80FE000
07F80FE000
07F80FE000
07F80FE000
07F80FE000
07F80FE000
07F80FE000
07F80FE000
03F80FE000
03F80FE000
03F81FE000
03F83FF800
03F87FFE08
03F87FFF30
03F00FFFE0
03F001FF80
03F0007F00
03F0003E00
01F0000800
01F0000000
01F0000000
01F0000000
01F0000000
01F0000000
00E0000000
00E0000000
00E0000000
00E0000000
0060000000
0040000000
0040000000
ENDCHAR
STARTCHAR 0061
ENCODING 97
SWIDTH 388 0
DWIDTH 28 0
BBX 26 31 0 0
BITMAP
0000C000
0001F000
0007F800
000FFC00
0037FF00
0063FFC0
00C0FFC0
03007F80
06001F00
0E000E00
0C000C00
1C000800
38001800
38001800
78001000
78003000
78003000
78003000
FC007000
7E007000
7F00F800
7F00F800
7F81FC00
3FC3FE00
3FF7FF80
1FFCFFC0
0FF8FF80
07F07F00
03E03E00
01C03C00
00801800
ENDCHAR
STARTCHAR 0062
ENCODING 98
SWIDTH 416 0
DWIDTH 30 0
BBX 28 45 0 -1
BITMAP
00020000
000E0000
003C0000
00F00000
07E00000
3FE00000
1FC00000
1FC00000
1FC00000
1FC00000
1FC00000
1FC00000
1FC00000
1FC00000
1FC03000
1FC07800
1FC0FE00
1FC3FF00
1FC7FF00
1FDCFF80
1FF07FC0
1FE03FE0
1FC03FE0
1FC01FF0
1FC00FF0
1FC00FF0
1FC007F0
1FC007F0
1FC003F0
1FC003F0
1FC003E0
1FC003E0
1FC003C0
1FC00380
1FC00780
1FC00700
1FC00E00
3FF00C00
7FFC1800
FFFF3000
1FFFE000
03FFC000
00FF0000
007E0000
00180000
ENDCHAR
STARTCHAR 0063
ENCODING 99
SWIDTH 291 0
DWIDTH 21 0
BBX 20 31 0 0
BITMAP
001000
003C00
00FF00
01FFC0
03FFF0
0E7FE0
1E3FC0
3E0F80
7C0700
7C0000
FC0000
FC0000
FC0000
FC0000
FC0000
FC0000
FC0000
FC0000
FE0000
FE0000
FE0000
7F0000
7F0000
7F80C0
3FC380
3FFE00
1FFC00
0FF800
07E000
03C000
018000
ENDCHAR
STARTCHAR 0064
ENCODING 100
SWIDTH 458 0
DWIDTH 33 0
BBX 31 48 1 0
BITMAP
00010000
000F8000
007E0000
01FC0000
03F80000
07F80000
07F00000
07F00000
0FF80000
0FF80000
07FE0000
07FF0000
07FF8000
03FFE000
01FFF000
00FFF800
007FFC00
003FFF00
000FFF80
003FFFC0
00F1FFE0
01C0FFF0
03C03FF8
0F801FF8
1F800FFC
1F0007FC
3F0003FC
7F0001FC
7F0001FE
7F0000FE
FF0000FE
FF00007E
FF80007E
7F80007C
7FC0007C
7FC0007C
7FE00078
3FF00078
1FF00070
1FF80070
0FFE00E0
07FF01C0
03FFFF00
01FFFE00
00FFF800
007FE000
003F0000
000C0000
ENDCHAR
STARTCHAR 0065
ENCODING 101
SWIDTH 291 0
DWIDTH 21 0
BBX 20 32 0 0
BITMAP
001000
003800
007C00
00FE00
03FE00
06FF00
1E7F80
3E3FC0
7C1FF0
7C0FE0
FC0FC0
FC0780
FC0600
FC0C00
FC1800
FC3000
FC4000
FC8000
FF0000
FE0000
FE0000
FE0000
7F0000
7F8040
3FC180
3FFF00
1FFE00
0FF800
0FF000
07E000
038000
010000
ENDCHAR
STARTCHAR 0066
ENCODING 102
SWIDTH 388 0
DWIDTH 28 0
BBX 26 61 0 -13
BITMAP
00008000
0007F040
000FFEC0
001FFF80
003FFF80
007FFF00
00FFFE00
00C0FE00
01803C00
01800C00
01800000
03800000
03800000
03800000
03C00000
07E00000
07F00000
07FFF000
0FFFF000
1FFFF000
3FFFF000
FFFFF000
FFFFF000
07FC0000
07FC0000
07F80000
07F80000
07F80000
07F80000
07F80000
07F80000
07F80000
07F80000
07F80000
07F80000
07F80000
07F80000
07F80000
03F80000
03F80000
03F80000
03F80000
03F80000
03F80000
03F80000
03F80000
03F00000
03F00000
01F00000
01F00000
01F00000
01F00000
01F00000
01F00000
00E00000
00E00000
00E00000
00E00000
00600000
00400000
00400000
ENDCHAR
STARTCHAR 0067
ENCODING 103
SWIDTH 416 0
DWIDTH 30 0
BBX 33 45 -4 -13
BITMAP
0000010000
0180038000
03C007C000
07FFFFFF80
0FFFFFFF00
0FFFFFFF00
0FFFFFFE00
0FFFFFFE00
0FFFFFFE00
0FE00FE000
0FE00FE000
0FE00FE000
0FE00FE000
0FE00FE000
0FE00FE000
0FE00FE000
0FE00FE000
0FE00FE000
0FE00FE000
0FE00FE000
0FE00FE000
0FE00FF000
0FF00FF000
0FF01FF800
07F83FF800
07FCEFFC00
07FFC7FC00
03FF03FC00
03FE03FC00
01FC01FC00
00F001FC00
004000F800
000000F800
0000007800
0000007000
0200007000
070000E000
0F8000C000
1FE0018000
3FF0030000
7FFE0E0000
FFFFFC0000
0FFFF00000
03FFC00000
007E000000
ENDCHAR
STARTCHAR 0068
ENCODING 104
SWIDTH 430 0
DWIDTH 31 0
BBX 27 55 1 -9
BITMAP
000C0000
003C0000
00F00000
03E00000
3FC00000
7F800000
3F800000
3F800000
3F800000
3F800000
3F800000
3F800000
3F800000
3F800000
3F806000
3F81F000
3F83F800
3F87FC00
3F9FFE00
3FBFFE00
3FE3FF00
3FC1FF00
3F80FF80
3F807F80
3F803FC0
3F803FC0
3F801FC0
3F800FE0
3F800FE0
3F8007E0
3F8003E0
3F8003E0
3F8003E0
3F8001E0
3F8001E0
3F8001E0
3FC001E0
7FF001C0
FFF831C0
FFFE61C0
1FFF8380
03FF0380
01FE0700
00780600
00100E00
00001C00
00001800
00003000
00007000
0000E000
00018000
00030000
00060000
000C0000
00080000
ENDCHAR
STARTCHAR 0069
ENCODING 105
SWIDTH 263 0
DWIDTH 19 0
BBX 18 45 0 0
BITMAP
003800
00FC00
01FC00
03FC00
03FC00
03F800
03F000
07E000
078000
060000
000000
000000
000000
020000
020000
070000
0FC000
1FE000
7FF000
FFF800
3FF000
1FE000
1FC000
1FC000
1FC000
1FC000
1FC000
1FC000
1FC000
1FC000
1FC000
1FC000
1FC000
1FC000
1FC000
1FC000
1FC000
3FF000
7FF800
7FFCC0
0FFF80
07FF00
03FC00
00F000
004000
ENDCHAR
STARTCHAR 006A
ENCODING 106
SWIDTH 208 0
DWIDTH 15 0
BBX 14 56 0 -12
BITMAP
0038
00FC
01FC
03FC
03FC
03F8
03F0
07E0
0780
0600
0000
0000
0000
0200
0200
0700
0FC0
1FE0
7FF0
FFF8
3FF0
1FE0
1FC0
1FC0
1FC0
1FC0
1FC0
1FC0
1FC0
1FC0
1FC0
1FC0
1FC0
1FC0
1FC0
1FC0
1FC0
1FC0
1FC0
1FC0
1FC0
1FC0
1FC0
1FC0
1FC0
1FC0
1FC0
1F80
1F00
1E00
1C00
1C00
1800
3800
3000
6000
ENDCHAR
STARTCHAR 006B
ENCODING 107
SWIDTH 305 0
DWIDTH 22 0
BBX 20 45 1 1
BITMAP
000C00
003C40
00F0C0
03E1E0
3FC7E0
7F8FF0
3F9BF0
3FB1F0
3FC0F0
3F80E0
3F80E0
3F80C0
3F8180
3FFFF0
3FFFE0
3FFFC0
7FFFC0
7FFF80
3F8000
3F8000
3F8000
3F8000
3F8000
3F8000
3F8000
3F8000
3F8000
3F8000
3F8000
3F8000
3F8000
3F8000
3F8000
3F8000
3F8000
3F8000
3FC000
7FF000
FFF830
FFFE60
1FFF80
03FF00
00FE00
007800
001000
ENDCHAR
STARTCHAR 006C
ENCODING 108
SWIDTH 305 0
DWIDTH 22 0
BBX 20 45 1 1
BITMAP
000C00
003C00
00F000
03E000
3FC000
7F8000
3F8000
3F8000
3F8000
3F8000
3F8000
3F8000
3F8000
3F8000
3F8000
3F8000
3F8000
3F8000
3F8000
3F8000
3F8000
3F8000
3F8000
3F8000
3F8000
3F8000
3F8000
3F8000
3F8000
3F8000
3F8000
3F8000
3F8000
3F8000
3F8000
3F8000
3FC000
7FF000
FFF830
FFFE60
1FFF80
03FF00
00FE00
007800
001000
ENDCHAR
STARTCHAR 006D
ENCODING 109
SWIDTH 611 0
DWIDTH 44 0
BBX 42 32 0 0
BITMAP
080000020000
1C01E0070000
3E03F00F8000
7F0FFC3FE000
FF9FFE7FF800
FFE3FFFFFF00
3FC0FF0FFF80
1FC07F07FF00
1FC07F01FE00
1FC07F00FE00
1FC07F00FC00
1FC07F00FC00
1FC07F00FC00
1FC07F00FC00
1FC07F00FC00
1FC07F00FC00
1FC07F00FC00
1FC07F00FC00
1FC07F00FC00
1FC07F00FC00
1FC07F00FC00
1FC07F00FC00
1FC07F00FC00
1FC07F00FC00
1FC07F00FC00
1FC07F00FC00
1FC07F00FE00
1FC07F00FEC0
1F807F00FF80
1E0078007E00
180060003C00
100040001800
ENDCHAR
STARTCHAR 006E
ENCODING 110
SWIDTH 402 0
DWIDTH 29 0
BBX 28 32 0 0
BITMAP
08008000
1C01C000
3E07E000
7F0FF800
FF9FFE00
FFFFFFC0
3FC3FFE0
1FC1FFC0
1FC07F80
1FC03F80
1FC03F00
1FC03F00
1FC03F00
1FC03F00
1FC03F00
1FC03F00
1FC03F00
1FC03F00
1FC03F00
1FC03F00
1FC03F00
1FC03F00
1FC03F00
1FC03F00
1FC03F00
1FC03F00
1FC03F00
1FC03FB0
1F803FE0
1E001F80
18000F00
10000400
ENDCHAR
STARTCHAR 006F
ENCODING 111
SWIDTH 430 0
DWIDTH 31 0
BBX 29 32 1 0
BITMAP
00008000
0001C000
0003F000
000FF800
001FFE00
003FFF00
00FFFF80
0387FFC0
0781FFE0
0F00FFE0
1F003FF0
3F001FF0
7E000FF0
7E000FF0
FE0007F0
FF0007F8
FF0003F0
FF0003F0
FF8003F0
7F8001F0
7FC001F0
7FC001E0
3FE001E0
1FF001C0
1FF80180
0FFC0300
07FF8E00
03FFFC00
01FFF000
00FFC000
007E0000
00180000
ENDCHAR
STARTCHAR 0070
ENCODING 112
SWIDTH 416 0
DWIDTH 30 0
BBX 28 44 0 -13
BITMAP
04000000
0F001C00
1F803E00
3F807F00
7FC0FF80
FFC1FFC0
7FC37FC0
1FC61FE0
1FCC0FE0
0FD807E0
0FF007F0
0FE003F0
0FC003F0
0FC003F0
0FC001F0
0FC001F0
0FC001F0
0FC001E0
0FC001E0
0FC001E0
0FC001C0
0FC001C0
0FC00180
1FF00180
3FFC0300
7FFF0300
7FFFC600
0FFFF400
0FFFF800
0FFFF000
0FC7E000
0FC1C000
0FC00000
0FC00000
07C00000
07C00000
07800000
07800000
07800000
07800000
03800000
03800000
03000000
01000000
ENDCHAR
STARTCHAR 0071
ENCODING 113
SWIDTH 402 0
DWIDTH 29 0
BBX 28 45 -1 -13
BITMAP
00004000
0001E000
0007F000
003FFC00
00F7FE00
03E3FF80
0FC1FFC0
0FC0FFF0
1F803FE0
1F801FC0
3F001FC0
3F001FC0
3F001FC0
7F001FC0
7E001FC0
7E001FC0
7E001FC0
7E001FC0
FE001FC0
FE001FC0
FE003FC0
FE007FC0
FF007FC0
7F00DFC0
7F819FC0
7FC31FC0
7FF61FC0
3FFC1FC0
3FF81FC0
1FF01FC0
07E01F80
00C01F80
00001F80
00001F80
00001F80
00001F80
00000F80
00000F00
00000F00
00000F00
00000700
00000700
00000600
00000200
00000200
ENDCHAR
STARTCHAR 0072
ENCODING 114
SWIDTH 347 0
DWIDTH 25 0
BBX 23 32 1 0
BITMAP
040040
3E00C0
FF03E0
FF87F0
7F9FF8
3FB7FC
3FE3FE
3F83F8
3F80F0
3F8060
3F8000
3F8000
3F8000
3F8000
3F8000
3F8000
3F8000
3F8000
3F8000
3F8000
3F8000
3F8000
3F8000
3FC000
7FF000
FFF830
FFFE60
1FFF80
03FF00
00FE00
007800
001000
ENDCHAR
STARTCHAR 0073
ENCODING 115
SWIDTH 388 0
DWIDTH 28 0
BBX 26 61 0 -13
BITMAP
00008000
0007F040
000FFEC0
001FFF80
003FFF80
007FFF00
00FFFE00
00C0FE00
01803C00
01800C00
01800000
03800000
03800000
03800000
03C00000
07E00000
07F00000
07F80000
0FFC0000
1FFC0000
3FFC0000
FFFC0000
FFFC0000
07F80000
07F80000
07F80000
07F80000
07F80000
07F80000
07F80000
07F80000
07F80000
07F80000
07F80000
07F80000
07F80000
07F80000
07F80000
03F80000
03F80000
03F80000
03F80000
03F80000
03F80000
03F00000
03F00000
03F00000
03F00000
01F00000
01F00000
01F00000
01F00000
01F00000
01F00000
00E00000
00E00000
00E00000
00E00000
00600000
00400000
00400000
ENDCHAR
STARTCHAR 0074
ENCODING 116
SWIDTH 305 0
DWIDTH 22 0
BBX 21 40 0 1
BITMAP
006000
00C000
00C000
01C000
03C000
07C000
07C000
0FC000
1FFFE0
3FFFE0
3FFFC0
7FFFC0
FFFFC0
1FC000
1FC000
1FC000
1FC000
1FC000
1FC000
1FC000
1FC000
1FC000
1FC000
1FC000
1FC000
1FC000
1FC000
1FC000
1FC000
1FC000
1FC000
1FE000
3FF800
7FFC18
7FFF30
0FFFC0
01FF80
007F00
003C00
000800
ENDCHAR
STARTCHAR 0075
ENCODING 117
SWIDTH 402 0
DWIDTH 29 0
BBX 28 32 0 0
BITMAP
04000000
0F000100
1F800700
7F801F00
FF803F00
9F803F00
1F803F00
1F803F00
1F803F00
1F803F00
1F803F00
1F803F00
1F803F00
1F803F00
1F803F00
1F803F00
1F803F00
1F803F00
1F803F00
1F803F00
1F803F00
1F803F00
1F803F00
1FC03F00
3FF03F80
7FF83F80
7FFEFFE0
0FFFBFF0
03FF1FE0
00FC0F80
00780700
00100200
ENDCHAR
STARTCHAR 0076
ENCODING 118
SWIDTH 416 0
DWIDTH 30 0
BBX 29 32 0 0
BITMAP
00000400
0F000F00
1F803F80
3FC07FC0
7FC1FFE0
FFE3FFE0
7FEFFFF0
3FF81FF0
1FF00FF0
0FF007F0
0FF007F8
07E003F8
07E003F8
03E001F0
03E001F0
03C001F0
03C001F0
078001E0
070001E0
070001C0
0E0001C0
0E000180
1F000380
1FE00300
3FF80600
7FFE0600
FFFF8C00
3FFFF800
07FFF000
00FFE000
001F8000
00060000
ENDCHAR
STARTCHAR 0077
ENCODING 119
SWIDTH 652 0
DWIDTH 47 0
BBX 42 32 0 0
BITMAP
040000000000
0F0030007000
1F00FC00F800
3F81FE01FC00
7F83FF03FE00
FFC7FF8FFF00
7FCDFFDFFF80
3FD87FF0FF80
1FF03FE07FC0
1FE01FC03FC0
1FC01FC03FC0
1FC01FC01FC0
1FC01FC01FC0
1FC01FC00FC0
1FC01FC00FC0
1FC01FC00FC0
1FC01FC00FC0
1FC01FC00780
1FC01FC00780
1FC01FC00700
1FC01FC00700
1FC01FC00E00
1FC01FF00E00
3FE01FF80C00
FFF83FFC1800
7FFC6FFE3000
1FFEC3FFE000
07FF81FFC000
01FF00FF8000
007C007E0000
0038003C0000
001000180000
ENDCHAR
STARTCHAR 0078
ENCODING 120
SWIDTH 347 0
DWIDTH 25 0
BBX 23 44 0 -13
BITMAP
040000
060060
0F00F0
1F81F8
3F83F8
7FC7FC
FFCFFE
FFFBFC
3FF1F8
1FE0F0
1FE060
0FE000
0FE000
0FE000
0FE000
0FE000
0FE000
07E000
07E000
07E000
07E000
07E000
0FE006
0FF00C
0FF818
0FFE30
0FFFE0
0FFFE0
0FFFC0
0FFF80
1E3F00
1E0E00
1C0000
1C0000
180000
380000
380000
300000
300000
200000
600000
600000
400000
400000
ENDCHAR
STARTCHAR 0079
ENCODING 121
SWIDTH 416 0
DWIDTH 30 0
BBX 28 45 0 -14
BITMAP
00001C00
07003F00
0F807F80
1FC0FFC0
3FC1FFE0
7FE3FFF0
FFE71FF0
3FE40FF0
1FF807F0
0FF803F0
07F001F0
07F800E0
07F800E0
07F800C0
03F800C0
03FC0080
03FC0100
01FC0300
01FC0200
01FE0600
01FE0400
00FE0C00
00FE1800
00FF1000
00FF3000
007F2000
007F6000
007FC000
003F8000
003F8000
003F0000
003F0000
001E0000
001C0000
001C0000
00180000
00180000
00300000
00200000
00600000
00400000
00C00000
01800000
01000000
03000000
ENDCHAR
STARTCHAR 007A
ENCODING 122
SWIDTH 319 0
DWIDTH 23 0
BBX 21 46 0 -14
BITMAP
001000
003000
006000
00E000
01F000
03FC00
07FE00
0FFF18
1FFFB0
39FFE0
70FFC0
607FC0
001F80
000F00
000600
000C00
001800
003C00
007F00
00FFC0
01FFE0
03FFE0
07FFF0
0FFFF0
1E0FF8
3803F8
1001F8
0001F8
0000F8
000078
000078
000078
000078
000030
000070
000070
000060
000060
0400C0
1C0180
3E0300
FF0600
7FFC00
7FF800
1FF000
070000
ENDCHAR
STARTCHAR 007B
ENCODING 123
SWIDTH 208 0
DWIDTH 15 0
BBX 14 14 0 -5
BITMAP
1020
3870
7CF8
7EFC
7E7C
3E7C
3C78
3C78
3C78
3870
3870
7060
60C0
8100
ENDCHAR
STARTCHAR 007C
ENCODING 124
SWIDTH 347 0
DWIDTH 25 0
BBX 23 32 0 0
BITMAP
001000
003800
007E00
01FF8C
03FFF8
07FFF0
083FE0
100FE0
3003C0
700180
700300
F80780
FC0FC0
FF1FE0
FFBFF0
FFFFFC
7FFFFC
3F87FE
3F81FE
1F007E
0E003E
0C003C
1C001C
3F0018
3FC038
7FE030
FFFCC0
1FFF80
0FFC00
07F000
01E000
004000
ENDCHAR
STARTCHAR 007D
ENCODING 125
SWIDTH 208 0
DWIDTH 15 0
BBX 14 14 0 39
BITMAP
0408
0C18
1830
3870
3870
78F0
78F0
F8F0
F9F0
FDF8
FFFC
7CF8
3870
1020
ENDCHAR
STARTCHAR 00A0
ENCODING 160
SWIDTH 305 0
DWIDTH 22 0
BBX 0 0 0 0
BITMAP
ENDCHAR
STARTCHAR 00C4
ENCODING 196
SWIDTH 722 0
DWIDTH 52 0
BBX 49 66 0 -1
BITMAP
00000008000000
00000018060000
000000F03C0000
000003F0FC0000
000007E1F80000
000007E1F80000
000003C1F00000
00000381E00000
00000701C00000
00000701800000
00000E03000000
00001806000000
00001004000000
00000000000000
000F0000000000
007FC00000C000
01FFE000038000
07FFF8000F0000
1FFFFC001F0000
303FFC007F0000
701FFE00FE0000
700FFF00FE0000
F007FF01FE0000
F803FF01FE0000
FC01FF83FE0000
FE01FF83FE0000
7E00FF83FE0000
7800FF83FE0000
20007F83FE0000
00007F83FE0000
00007F83FE0000
00003F83FE0000
00003F83FE0000
00003F03FE0000
00003F03FE0000
00003F03FE0000
00003E03FE0000
00003E03FE0000
00003C03FE0000
00003C03FE0000
00003803FE0000
00007803FE0000
00007003FE0000
00006003FE0000
0000E003FE0000
0000C003FE0000
00018003FE0000
00030003FE0000
00030003FE0000
00060003FE0000
000C0003FE0000
00180003FE0000
003E0003FE0000
007F8003FE0000
01FFC003FE0000
03FFF003FE0000
0FFFF803FE0000
00FFFC01FE0000
001FFE03FF0000
0007FF0DFF0180
0003FF98FF8700
0000FFF0FFFC00
00007FC07FF800
00003F803FF000
00001F000FC000
00000C00038000
ENDCHAR
STARTCHAR 00D6
ENCODING 214
SWIDTH 736 0
DWIDTH 53 0
BBX 51 66 -1 0
BITMAP
00000004000000
0000000C030000
000000781E0000
000001F87E0000
000003F0FC0000
000003F0FC0000
000001E0F80000
000001C0F00000
00000380E00000
00000380C00000
00000701800000
00000C03000000
00000802000000
00000000000000
00000000000000
000000E0020000
000003E0060000
00000FE00E0000
00003FE01E0000
0000FFE07E0000
0003DFE0FF0000
000F9FE1FF0000
001E1FE33F8000
007C1FEE3FC000
00F81FFC3FE000
01F81FF03FE000
03F01FE03FF000
07E01FE01FF800
0FE01FE01FFC00
0FC01FE00FFE00
1FC01FE007FE00
1FC01FE007FF00
3F801FE003FF00
3F801FE001FF80
7F801FE000FF80
7F801FE0007FC0
7F801FE0003FC0
7F001FE0001FC0
FF001FE0001FE0
FF801FE0000FE0
FF801FE0000FE0
FF801FE00007E0
FF801FE00007E0
7F801FE00007E0
7F801FC00007E0
7FC01F800007C0
7FC01F800007C0
7FE01F000007C0
3FE03E000007C0
3FF03C00000780
1FF87800000780
1FFC7000000F00
0FFEE000000E00
0FFFC000001E00
07FF8000003C00
03FFE000003800
01FFF80000F000
00FFFE0001E000
007FFFE007C000
003FFFFFFF0000
000FFFFFFE0000
0007FFFFF80000
0001FFFFE00000
00007FFF800000
00001FFC000000
000003E0000000
ENDCHAR
STARTCHAR 00DC
ENCODING 220
SWIDTH 666 0
DWIDTH 48 0
BBX 46 65 0 1
BITMAP
000001806000
00000783C000
00003F0FC000
00007F1F8000
00003E1F8000
00003C0F0000
0000380E0000
0000781C0000
0000701C0000
0000E0380000
0001C0700000
000100400000
000000000000
010000001000
018000001800
03E000003C00
07F000007E00
0FF80001FF00
1FF80003FF80
3FFC000FFFE0
3FFC003FFFFC
7FFC001FFFE0
FFFC0007FF80
0FFC0003FF00
07FE0001FF00
07FC0001FF00
07FC0001FF00
07FC0001FF00
03FC0000FF00
03FC0000FF00
03FC0000FF00
03FC0000FF00
03FC0000FF00
03FC0000FF00
03FC0000FF00
03FC0000FF00
03FC0000FF00
03FC0000FF00
03FC0000FF00
03FC0000FF00
03FC0000FF00
03FC0000FF00
03FC0000FF00
03FC0001FF00
03FC0001FF00
03FC0001FF00
03FC0001FF00
03FC0001FF00
03FC0001FF00
03FC0001FF00
07FC0003FF00
07FC0007FF00
07FF000DFF00
0FFF8019FFC0
3FFFC031FFE0
1FFFF061FFC0
07FFF8C1FF80
01FFFD81FF00
007FFF01FE00
001FFE01FC00
000FFC01F800
0003F801F000
0001F001E000
0000E0018000
000040010000
ENDCHAR
STARTCHAR 00DF
ENCODING 223
SWIDTH 500 0
DWIDTH 36 0
BBX 34 63 0 -14
BITMAP
0000800000
0007F04000
000FFEC000
001FFF8000
003FFF8000
007FFF0000
00FFFE0000
00C0FE0000
01803C0000
01800C0000
0180000000
0380000000
0380000000
0380000000
03C0000000
07E0000000
07F0000000
07F8000000
0FFC01C000
1FFC038000
3FFC070000
FFFC0F8000
FFFC1FC000
07FC3FF080
07FCFFF9C0
07FFFFFF80
07F80FFF00
07F807FE00
07F803FC00
07F801F800
07F8007800
07F8007000
07F800E000
07F801C000
07F803C000
07F807F800
07F80FFC00
07F80FFE00
03F81FFF00
03F83FFF80
03F87FFF80
03F8F07F80
03F9C03FC0
03F1801FC0
03F0000FC0
03F00007C0
03F00007C0
03F00003C0
01F00003C0
01F0000380
01F0000380
01F0000380
01F0000300
01E0000300
00E0000600
00E0600600
00E0E00C00
00E1F01800
0067F87000
0047FFE000
0043FFC000
0001FF0000
0000380000
ENDCHAR
STARTCHAR 00E4
ENCODING 228
SWIDTH 388 0
DWIDTH 28 0
BBX 27 44 0 0
BITMAP
00008020
000380E0
000F03C0
007F1FC0
003E1F80
003E0F80
003C0F00
00380E00
00701C00
00601800
00C03000
01806000
00008000
0001C000
0007E000
000FF800
001FFC00
0067FF00
00C3FFC0
0180FF80
07007F00
0E003E00
0C000C00
18001800
38001800
38001000
78003000
70003000
F8002000
F8006000
F8006000
FC007000
FC00F000
FE01F000
7F01F800
7F83FC00
7FC7FE00
3FEFFF80
3FF9FF80
1FF0FF00
0FE07E00
07C07C00
03803800
00001000
ENDCHAR
STARTCHAR 00F6
ENCODING 246
SWIDTH 430 0
DWIDTH 31 0
BBX 29 44 1 0
BITMAP
00002000
0000C030
0007C1F0
001FC7F0
001F87E0
001F07C0
001F07C0
001E0780
001C0700
00380E00
00300C00
00601800
00008000
0001C000
0003F000
000FF800
001FFE00
003FFF00
00FFFF80
0387FFC0
0781FFE0
0F00FFE0
1F003FF0
3F001FF0
7E000FF0
7E000FF0
FE0007F0
FF0007F8
FF0003F0
FF0003F0
FF8003F0
7F8001F0
7FC001F0
7FC001E0
3FE001E0
1FF001C0
1FF80180
0FFC0300
07FF8E00
03FFFC00
01FFF000
00FFC000
007E0000
00180000
ENDCHAR
STARTCHAR 00FC
ENCODING 252
SWIDTH 402 0
DWIDTH 29 0
BBX 28 44 0 0
BITMAP
00008020
000380E0
000F07C0
007F1FC0
007E1F80
003E0F80
003C0F00
00381E00
00701C00
00603800
00C03000
01806000
04000000
0F000100
1F800700
7F801F00
FF803F00
9F803F00
1F803F00
1F803F00
1F803F00
1F803F00
1F803F00
1F803F00
1F803F00
1F803F00
1F803F00
1F803F00
1F803F00
1F803F00
1F803F00
1F803F00
1F803F00
1F803F00
1F803F00
1FC03F00
3FF03F80
7FF83F80
7FFEFFE0
0FFFBFF0
03FF1FE0
00FC0F80
00780700
00100200
ENDCHAR
STARTCHAR 00FF
ENCODING 255
SWIDTH 180 0
DWIDTH 13 0
BBX 12 17 0 20
BITMAP
1000
3800
3C00
3E00
7F00
7F80
7FE0
FFF0
FFF0
7FF0
3FF0
1FE0
0FE0
07E0
03C0
01C0
0040
ENDCHAR
ENDFONT
